<svg xmlns="http://www.w3.org/2000/svg" viewBox="0 0 588.9 220.5"><linearGradient id="a" gradientUnits="userSpaceOnUse" x1="57.911" y1="200.88" x2="57.911" y2="100.307"><stop offset="0" stop-color="#231f20"/><stop offset="1" stop-color="#231f20"/></linearGradient><path d="M108.2 150.6c0 14-4.9 25.9-14.6 35.7-9.7 9.8-21.6 14.6-35.6 14.6s-25.9-4.9-35.6-14.6c-9.8-9.8-14.6-21.6-14.6-35.7s4.9-25.9 14.6-35.7c9.7-9.8 21.6-14.6 35.6-14.6s25.9 4.9 35.6 14.6c9.7 9.8 14.6 21.7 14.6 35.7zm-26.4 0c0-6.7-2.3-12.3-7-17-4.6-4.6-10.3-7-16.9-7-6.6 0-12.3 2.3-16.9 7-4.6 4.6-7 10.3-7 17 0 6.7 2.3 12.3 7 17 4.6 4.7 10.3 7 16.9 7 6.6 0 12.3-2.3 16.9-7 4.7-4.7 7-10.4 7-17z" fill="url(#a)"/><linearGradient id="b" gradientUnits="userSpaceOnUse" x1="154.158" y1="200.88" x2="154.158" y2="100.307"><stop offset="0" stop-color="#231f20"/><stop offset="1" stop-color="#231f20"/></linearGradient><path d="M192 113.5V163c0 10.5-3.7 19.4-11.1 26.8-7.4 7.4-16.3 11-26.8 11s-19.4-3.7-26.8-11c-7.4-7.4-11.1-16.3-11.1-26.8v-49.5c0-3.8 1.2-7 3.7-9.5s5.6-3.7 9.5-3.7c3.8 0 7 1.2 9.5 3.7s3.7 5.6 3.7 9.5V163c0 3.2 1.1 5.9 3.4 8.2 2.3 2.3 5 3.4 8.2 3.4 3.2 0 5.9-1.1 8.2-3.4 2.2-2.3 3.4-5 3.4-8.2v-49.5c0-3.8 1.2-7 3.7-9.5s5.6-3.7 9.5-3.7c3.8 0 7 1.2 9.5 3.7 2.3 2.5 3.5 5.7 3.5 9.5z" fill="url(#b)"/><linearGradient id="c" gradientUnits="userSpaceOnUse" x1="246.285" y1="200.88" x2="246.285" y2="100.307"><stop offset="0" stop-color="#231f20"/><stop offset="1" stop-color="#231f20"/></linearGradient><path d="M284.2 187.7c0 3.8-1.2 7-3.7 9.5s-5.6 3.7-9.5 3.7-7-1.2-9.5-3.7-3.7-5.6-3.7-9.5v-49.5c0-3.2-1.1-5.9-3.4-8.2-2.2-2.3-5-3.4-8.2-3.4-3.2 0-5.9 1.1-8.2 3.4-2.3 2.3-3.4 5-3.4 8.2v49.5c0 3.8-1.2 7-3.7 9.5s-5.6 3.7-9.5 3.7c-3.8 0-7-1.2-9.5-3.7s-3.7-5.6-3.7-9.5v-74.2c0-3.8 1.2-7 3.7-9.5s5.6-3.7 9.5-3.7c3.7 0 6.7 1.2 9.1 3.5 4.9-2.3 10.1-3.5 15.6-3.5 10.5 0 19.4 3.7 26.8 11 7.4 7.4 11.1 16.3 11.1 26.8v49.6z" fill="url(#c)"/><linearGradient id="d" gradientUnits="userSpaceOnUse" x1="337.217" y1="200.88" x2="337.217" y2="100.307"><stop offset="0" stop-color="#231f20"/><stop offset="1" stop-color="#231f20"/></linearGradient><path d="M382.1 124.2c0 3.6-1.4 6.7-4.1 9.5-2.7 2.7-5.9 4.1-9.4 4.1-2 0-5.7-1.9-11-5.6-5.3-3.7-10.3-5.6-15.1-5.6-6.6 0-12.3 2.3-16.9 7-4.6 4.6-7 10.3-7 17 0 6.7 2.3 12.3 7 17 4.6 4.7 10.3 7 16.9 7 4.7 0 9.7-1.8 15-5.5 5.3-3.7 9-5.5 11-5.5 3.6 0 6.7 1.4 9.4 4.1 2.7 2.7 4.1 5.9 4.1 9.4 0 3-1.4 6.1-4.1 9.2-4.1 4.6-9.4 8.2-16.1 10.9-6.4 2.5-12.8 3.8-19.3 3.8-13.9 0-25.8-4.9-35.6-14.7-9.8-9.8-14.7-21.7-14.7-35.6 0-14 4.9-25.8 14.7-35.6 9.8-9.8 21.6-14.7 35.6-14.7 6.4 0 12.8 1.3 19.3 3.9 6.8 2.7 12.2 6.3 16.2 10.8 2.8 3 4.1 6.1 4.1 9.1z" fill="url(#d)"/><linearGradient id="e" gradientUnits="userSpaceOnUse" x1="432.268" y1="200.88" x2="432.268" y2="63.322"><stop offset="0" stop-color="#231f20"/><stop offset="1" stop-color="#231f20"/></linearGradient><path d="M470.2 187.7c0 3.8-1.2 7-3.7 9.5s-5.6 3.7-9.5 3.7c-3.8 0-7-1.2-9.5-3.7s-3.7-5.6-3.7-9.5v-49.5c0-3.2-1.1-5.9-3.4-8.2-2.3-2.3-5-3.4-8.2-3.4-3.2 0-5.9 1.1-8.2 3.4-2.3 2.3-3.4 5-3.4 8.2v49.5c0 3.8-1.2 7-3.7 9.5s-5.6 3.7-9.5 3.7c-3.8 0-7-1.2-9.5-3.7s-3.7-5.6-3.7-9.5V76.5c0-3.8 1.2-7 3.7-9.5s5.6-3.7 9.5-3.7c3.8 0 7 1.2 9.5 3.7s3.7 5.6 3.7 9.5v25.7c3.7-1.3 7.6-1.9 11.5-1.9 10.5 0 19.4 3.7 26.8 11 7.4 7.4 11.1 16.3 11.1 26.8v49.6z" fill="url(#e)"/><g><path d="M499.3 66.7h-1v-.1c0-7.3 2.6-13.6 7.7-18.8l.6.6-.6-.6.3-.3c5.2-5.2 11.5-7.9 18.8-8v.7-.7h.4c7.3 0 13.6 2.6 18.9 7.8l-.6.6.6-.6c.1.1.2.1.2.2 5.3 5.3 8 11.7 8 19.2h-.3.3c0 7.4-2.7 13.8-8 19.1l-.3.3-.4-.4.4.4c-5.3 5.1-11.5 7.7-18.8 7.7h-.4v-.3.3c-7.3-.1-13.5-2.8-18.7-8-.1-.1-.1-.2-.2-.2l.1-.1-.1.1c-5.2-5.3-7.8-11.5-7.8-18.8l.9-.1z" fill="none"/><linearGradient id="f" gradientUnits="userSpaceOnUse" x1="368.244" y1="-88.914" x2="352.035" y2="-122.735" gradientTransform="scale(-1 1) rotate(45 -231.411 -1087.672)"><stop offset="0" stop-color="#ef5323"/><stop offset=".282" stop-color="#f17422"/><stop offset=".592" stop-color="#f38e20"/><stop offset=".842" stop-color="#f49e1e"/><stop offset="1" stop-color="#f5a31d"/></linearGradient><path d="M506.3 47.5l-.3.3-21.1-21.2.3-.3c11.1-11.1 24.4-16.7 39.9-16.8v30c-7.3.1-13.6 2.8-18.8 8z" fill="url(#f)"/><linearGradient id="g" gradientUnits="userSpaceOnUse" x1="386.8" y1="-84.41" x2="400.178" y2="-119.799" gradientTransform="scale(-1 1) rotate(45 -231.411 -1087.672)"><stop offset="0" stop-color="#f15b2a"/><stop offset=".06" stop-color="#f16029"/><stop offset=".466" stop-color="#f47d25"/><stop offset=".794" stop-color="#f58d22"/><stop offset="1" stop-color="#f69321"/></linearGradient><path d="M498.3 66.6c0 .1 0 .1 0 0l-30 .1v-.1c0-15.5 5.5-28.8 16.5-40L506 47.8c-5.1 5.3-7.7 11.5-7.7 18.8z" fill="url(#g)"/><linearGradient id="h" gradientUnits="userSpaceOnUse" x1="400.347" y1="-75.179" x2="436.013" y2="-87.403" gradientTransform="scale(-1 1) rotate(45 -231.411 -1087.672)"><stop offset="0" stop-color="#ee7b22"/><stop offset=".035" stop-color="#ee7c22"/><stop offset=".627" stop-color="#f48d22"/><stop offset="1" stop-color="#f69321"/></linearGradient><path d="M506.1 85.6L485 106.7c-11.1-11.2-16.6-24.5-16.6-40h30c0 7.3 2.6 13.6 7.7 18.9z" fill="url(#h)"/><linearGradient id="i" gradientUnits="userSpaceOnUse" x1="397.427" y1="-6.497" x2="397.427" y2="-44.593" gradientTransform="scale(-1 1) rotate(45 -231.411 -1087.672)"><stop offset="0" stop-color="#faa31b"/><stop offset=".5" stop-color="#f7991f"/><stop offset="1" stop-color="#f69321"/></linearGradient><path d="M525.5 93.8c7.3 0 13.6-2.6 18.8-7.7l21.1 21.1c-11.2 11-24.5 16.5-40 16.5h-.5v-30c.3.1.5.1.6.1z" fill="url(#i)"/><linearGradient id="j" gradientUnits="userSpaceOnUse" x1="354.378" y1="-7.196" x2="366.616" y2="-42.908" gradientTransform="scale(-1 1) rotate(45 -231.411 -1087.672)"><stop offset="0" stop-color="#ffc42e"/><stop offset=".427" stop-color="#faa926"/><stop offset=".778" stop-color="#f79922"/><stop offset="1" stop-color="#f69321"/></linearGradient><path d="M544.7 85.8c5.3-5.3 8-11.7 8-19.1l30 .1c0 15.6-5.6 28.9-16.8 40.1l-.3.3-21.1-21.1c0-.1.1-.2.2-.3z" fill="url(#j)"/><linearGradient id="k" gradientUnits="userSpaceOnUse" x1="433.322" y1="-41.656" x2="399.239" y2="-50.364" gradientTransform="scale(-1 1) rotate(45 -231.411 -1087.672)"><stop offset="0" stop-color="#f7941e"/><stop offset=".556" stop-color="#f68824"/><stop offset="1" stop-color="#f58226"/></linearGradient><path d="M485 106.7l21.1-21.1c.1.1.1.2.2.2 5.2 5.2 11.5 7.9 18.7 8v30c-15.4-.1-28.7-5.7-39.8-16.8-.1-.2-.1-.2-.2-.3z" fill="url(#k)"/><linearGradient id="l" gradientUnits="userSpaceOnUse" x1="319.932" y1="-83.995" x2="357.986" y2="-83.995" gradientTransform="scale(-1 1) rotate(45 -231.411 -1087.672)"><stop offset="0" stop-color="#f8bd48"/><stop offset="1" stop-color="#ffc431"/></linearGradient><path d="M525.5 39.5h-.4v-30h.4c15.5 0 28.9 5.6 40 16.6l-21.1 21.1c-5.3-5.1-11.6-7.7-18.9-7.7z" fill="url(#l)"/><linearGradient id="m" gradientUnits="userSpaceOnUse" x1="320.718" y1="-40.931" x2="356.666" y2="-52.604" gradientTransform="scale(-1 1) rotate(45 -231.411 -1087.672)"><stop offset="0" stop-color="#ffc42e"/><stop offset=".59" stop-color="#fbb53d"/><stop offset="1" stop-color="#faaf42"/></linearGradient><path d="M552.6 66.7c0-7.4-2.7-13.8-8-19.2-.1-.1-.2-.1-.2-.2l21.1-21.1c.1.1.2.1.2.2 11.2 11.2 16.8 24.7 16.9 40.3v.2l-30-.2z" fill="url(#m)"/></g></svg>